<?xml version="1.0" standalone="no"?>
<!DOCTYPE svg PUBLIC "-//W3C//DTD SVG 20010904//EN"
 "http://www.w3.org/TR/2001/REC-SVG-20010904/DTD/svg10.dtd">
<svg version="1.0" xmlns="http://www.w3.org/2000/svg"
 width="1024.000000pt" height="1024.000000pt" viewBox="0 0 1024.000000 1024.000000"
 preserveAspectRatio="xMidYMid meet">
<metadata>
Created by potrace 1.11, written by Peter Selinger 2001-2013
</metadata>
<g transform="translate(0.000000,1024.000000) scale(0.100000,-0.100000)"
fill="#000000" stroke="none">
<path d="M4848 10135 c-1 -1 -49 -6 -106 -10 -57 -3 -113 -8 -125 -10 -12 -2
-49 -6 -82 -10 -63 -7 -90 -10 -195 -26 -161 -24 -302 -54 -480 -100 -140 -36
-374 -107 -425 -129 -11 -4 -65 -25 -120 -45 -55 -21 -128 -50 -163 -66 -35
-16 -65 -29 -68 -29 -14 0 -336 -164 -448 -227 -113 -65 -442 -275 -456 -292
-3 -3 -49 -39 -103 -80 -54 -41 -104 -79 -110 -85 -7 -6 -35 -29 -62 -51 -28
-22 -61 -50 -75 -62 -158 -145 -203 -187 -255 -239 -107 -109 -199 -208 -245
-263 -25 -30 -52 -61 -61 -70 -8 -9 -30 -36 -49 -61 -18 -25 -38 -49 -44 -55
-15 -13 -157 -208 -222 -305 -226 -333 -418 -710 -556 -1095 -22 -60 -41 -114
-42 -120 -2 -5 -6 -17 -9 -25 -7 -18 -56 -186 -85 -290 -24 -85 -73 -321 -96
-455 -15 -89 -21 -133 -31 -230 -3 -27 -8 -64 -10 -82 -26 -186 -27 -846 -1
-1003 2 -14 7 -52 11 -85 12 -119 23 -189 45 -307 29 -155 60 -299 80 -368 5
-19 24 -84 41 -145 197 -702 611 -1439 1111 -1978 139 -150 222 -232 394 -388
53 -48 232 -192 329 -266 84 -63 399 -273 411 -273 3 0 18 -8 32 -18 64 -45
355 -195 512 -264 298 -132 620 -237 941 -308 79 -18 153 -33 164 -35 11 -1
61 -10 110 -18 90 -16 118 -19 230 -32 33 -4 71 -9 85 -11 164 -26 740 -26
995 1 85 8 153 16 180 20 17 3 48 7 70 10 22 3 51 7 65 10 14 2 38 7 54 9 16
3 52 10 80 15 28 6 62 13 76 15 38 7 160 35 205 46 22 6 51 13 64 16 14 3 28
7 33 10 4 3 18 7 30 9 85 17 433 138 608 212 168 71 464 222 613 314 76 46
146 89 156 94 87 51 475 342 557 419 7 6 45 41 86 78 116 105 335 327 413 419
164 193 272 335 392 514 139 207 297 491 388 696 25 57 53 119 62 138 43 94
127 328 182 506 28 91 103 389 115 458 32 176 31 173 50 317 34 249 41 365 41
675 0 230 -6 381 -19 495 -3 19 -7 59 -10 89 -8 72 -24 184 -36 251 -5 30 -12
69 -15 85 -5 33 -53 249 -60 278 -3 9 -7 26 -9 36 -3 11 -14 55 -26 98 -117
417 -275 793 -492 1172 -122 213 -377 577 -509 726 -14 17 -48 55 -74 85 -131
152 -361 376 -540 526 -541 454 -1161 784 -1844 980 -133 38 -340 89 -406 99
-11 2 -72 12 -135 23 -119 21 -241 38 -345 47 -33 3 -78 8 -100 11 -43 6 -661
14 -667 9z m497 -1449 c76 -6 211 -24 235 -31 8 -2 29 -7 45 -10 49 -8 68 -12
115 -25 25 -7 54 -14 65 -16 11 -2 70 -20 130 -40 576 -191 1041 -540 1300
-975 79 -134 180 -367 210 -489 33 -131 39 -161 55 -295 8 -68 6 -390 -3 -430
-3 -11 -8 -47 -12 -79 -9 -79 -57 -263 -95 -361 -50 -128 -177 -364 -201 -373
-5 -2 -9 -10 -9 -17 0 -7 -3 -15 -7 -17 -5 -1 -27 -28 -49 -58 -23 -30 -68
-84 -101 -120 -33 -36 -75 -83 -94 -105 -19 -22 -41 -47 -49 -55 -90 -89 -293
-361 -369 -492 -10 -18 -35 -62 -55 -97 -97 -169 -175 -368 -196 -495 -15 -90
-13 -100 18 -119 69 -40 143 -138 167 -222 41 -138 11 -312 -69 -409 l-24 -29
35 -48 c46 -65 74 -149 76 -229 3 -157 -35 -247 -144 -351 -59 -55 -59 -55
-45 -85 63 -125 52 -312 -26 -428 -67 -102 -240 -193 -378 -199 l-55 -2 -40
-66 c-107 -176 -273 -306 -452 -355 -142 -38 -294 -35 -427 7 -191 61 -339
190 -452 394 -7 13 -23 19 -50 21 -227 11 -400 133 -451 319 -26 97 -11 255
32 322 13 20 11 23 -28 54 -117 89 -169 205 -163 362 3 102 25 169 77 242 l31
43 -35 48 c-47 68 -68 127 -74 211 -13 164 51 310 172 393 50 34 50 39 16 182
-47 199 -171 450 -346 703 -71 101 -274 348 -380 459 -70 74 -215 257 -215
271 0 2 -14 24 -30 49 -107 157 -202 420 -245 671 -23 138 -24 429 -1 575 45
288 159 568 329 810 212 302 490 532 867 717 194 96 469 192 620 218 19 3 53
10 75 15 22 5 63 12 90 16 28 3 53 8 56 10 3 2 51 6 105 10 54 3 100 7 101 8
5 4 279 -2 348 -8z"/>
<path d="M4998 8095 c-2 -1 -35 -5 -73 -9 -72 -7 -78 -7 -183 -26 -263 -46
-610 -198 -842 -368 -611 -449 -747 -1279 -304 -1852 46 -60 54 -69 193 -219
52 -56 109 -119 128 -139 100 -109 259 -329 359 -497 149 -250 272 -568 300
-783 5 -31 9 -60 10 -64 1 -5 2 -21 3 -37 l1 -28 530 -1 c292 0 530 3 531 6 0
4 2 14 4 23 1 8 6 41 9 71 9 72 49 239 82 336 116 348 366 748 670 1071 32 35
81 86 108 115 260 274 383 565 384 905 0 155 -18 274 -63 407 -107 321 -315
577 -626 771 -154 96 -374 193 -552 243 -100 28 -187 45 -327 66 -43 6 -336
14 -342 9z m272 -749 c19 -3 60 -8 90 -12 154 -19 376 -103 495 -189 197 -140
300 -308 310 -504 6 -107 -50 -179 -141 -183 -90 -3 -146 57 -158 166 -12 118
-74 210 -185 276 -129 76 -346 143 -481 149 -30 2 -66 4 -80 6 -14 1 -33 3
-42 4 -28 2 -86 59 -98 97 -25 75 18 162 94 188 35 12 106 13 196 2z"/>
</g>
</svg>
